<mxfile host="Electron" agent="Mozilla/5.0 (Windows NT 10.0; Win64; x64) AppleWebKit/537.36 (KHTML, like Gecko) draw.io/24.7.8 Chrome/128.0.6613.36 Electron/32.0.1 Safari/537.36" version="24.7.8">
  <diagram name="Page-1" id="oUoKfrfFJ9TFHPxkTkSA">
    <mxGraphModel dx="1036" dy="606" grid="1" gridSize="10" guides="1" tooltips="1" connect="1" arrows="1" fold="1" page="1" pageScale="1" pageWidth="827" pageHeight="1169" math="0" shadow="0">
      <root>
        <mxCell id="0" />
        <mxCell id="1" parent="0" />
        <mxCell id="vJEHkjAeBdwb-GLlzBkE-1" value="Users" style="swimlane;fontStyle=0;childLayout=stackLayout;horizontal=1;startSize=26;fillColor=none;horizontalStack=0;resizeParent=1;resizeParentMax=0;resizeLast=0;collapsible=1;marginBottom=0;whiteSpace=wrap;html=1;" parent="1" vertex="1">
          <mxGeometry x="50" y="140" width="150" height="130" as="geometry" />
        </mxCell>
        <mxCell id="vJEHkjAeBdwb-GLlzBkE-2" value="+ id : INT" style="text;strokeColor=none;fillColor=none;align=left;verticalAlign=top;spacingLeft=4;spacingRight=4;overflow=hidden;rotatable=0;points=[[0,0.5],[1,0.5]];portConstraint=eastwest;whiteSpace=wrap;html=1;" parent="vJEHkjAeBdwb-GLlzBkE-1" vertex="1">
          <mxGeometry y="26" width="150" height="26" as="geometry" />
        </mxCell>
        <mxCell id="vJEHkjAeBdwb-GLlzBkE-3" value="+ email : VARCHAR" style="text;strokeColor=none;fillColor=none;align=left;verticalAlign=top;spacingLeft=4;spacingRight=4;overflow=hidden;rotatable=0;points=[[0,0.5],[1,0.5]];portConstraint=eastwest;whiteSpace=wrap;html=1;" parent="vJEHkjAeBdwb-GLlzBkE-1" vertex="1">
          <mxGeometry y="52" width="150" height="26" as="geometry" />
        </mxCell>
        <mxCell id="vJEHkjAeBdwb-GLlzBkE-4" value="+ password : VARCHAR" style="text;strokeColor=none;fillColor=none;align=left;verticalAlign=top;spacingLeft=4;spacingRight=4;overflow=hidden;rotatable=0;points=[[0,0.5],[1,0.5]];portConstraint=eastwest;whiteSpace=wrap;html=1;" parent="vJEHkjAeBdwb-GLlzBkE-1" vertex="1">
          <mxGeometry y="78" width="150" height="26" as="geometry" />
        </mxCell>
        <mxCell id="vJEHkjAeBdwb-GLlzBkE-5" value="+ admin : TINYINT" style="text;strokeColor=none;fillColor=none;align=left;verticalAlign=top;spacingLeft=4;spacingRight=4;overflow=hidden;rotatable=0;points=[[0,0.5],[1,0.5]];portConstraint=eastwest;whiteSpace=wrap;html=1;" parent="vJEHkjAeBdwb-GLlzBkE-1" vertex="1">
          <mxGeometry y="104" width="150" height="26" as="geometry" />
        </mxCell>
        <mxCell id="vJEHkjAeBdwb-GLlzBkE-6" value="Posts" style="swimlane;fontStyle=0;childLayout=stackLayout;horizontal=1;startSize=26;fillColor=none;horizontalStack=0;resizeParent=1;resizeParentMax=0;resizeLast=0;collapsible=1;marginBottom=0;whiteSpace=wrap;html=1;" parent="1" vertex="1">
          <mxGeometry x="480" y="110" width="140" height="130" as="geometry" />
        </mxCell>
        <mxCell id="vJEHkjAeBdwb-GLlzBkE-7" value="+ id : INT" style="text;strokeColor=none;fillColor=none;align=left;verticalAlign=top;spacingLeft=4;spacingRight=4;overflow=hidden;rotatable=0;points=[[0,0.5],[1,0.5]];portConstraint=eastwest;whiteSpace=wrap;html=1;" parent="vJEHkjAeBdwb-GLlzBkE-6" vertex="1">
          <mxGeometry y="26" width="140" height="26" as="geometry" />
        </mxCell>
        <mxCell id="vJEHkjAeBdwb-GLlzBkE-8" value="+ date : DATE" style="text;strokeColor=none;fillColor=none;align=left;verticalAlign=top;spacingLeft=4;spacingRight=4;overflow=hidden;rotatable=0;points=[[0,0.5],[1,0.5]];portConstraint=eastwest;whiteSpace=wrap;html=1;" parent="vJEHkjAeBdwb-GLlzBkE-6" vertex="1">
          <mxGeometry y="52" width="140" height="26" as="geometry" />
        </mxCell>
        <mxCell id="vJEHkjAeBdwb-GLlzBkE-9" value="+ texte : TEXT" style="text;strokeColor=none;fillColor=none;align=left;verticalAlign=top;spacingLeft=4;spacingRight=4;overflow=hidden;rotatable=0;points=[[0,0.5],[1,0.5]];portConstraint=eastwest;whiteSpace=wrap;html=1;" parent="vJEHkjAeBdwb-GLlzBkE-6" vertex="1">
          <mxGeometry y="78" width="140" height="26" as="geometry" />
        </mxCell>
        <mxCell id="vJEHkjAeBdwb-GLlzBkE-10" value="+ image : VARCHAR" style="text;strokeColor=none;fillColor=none;align=left;verticalAlign=top;spacingLeft=4;spacingRight=4;overflow=hidden;rotatable=0;points=[[0,0.5],[1,0.5]];portConstraint=eastwest;whiteSpace=wrap;html=1;" parent="vJEHkjAeBdwb-GLlzBkE-6" vertex="1">
          <mxGeometry y="104" width="140" height="26" as="geometry" />
        </mxCell>
        <mxCell id="vJEHkjAeBdwb-GLlzBkE-11" value="Comments" style="swimlane;fontStyle=0;childLayout=stackLayout;horizontal=1;startSize=26;fillColor=none;horizontalStack=0;resizeParent=1;resizeParentMax=0;resizeLast=0;collapsible=1;marginBottom=0;whiteSpace=wrap;html=1;" parent="1" vertex="1">
          <mxGeometry x="320" y="370" width="140" height="78" as="geometry" />
        </mxCell>
        <mxCell id="vJEHkjAeBdwb-GLlzBkE-12" value="+ id : INT" style="text;strokeColor=none;fillColor=none;align=left;verticalAlign=top;spacingLeft=4;spacingRight=4;overflow=hidden;rotatable=0;points=[[0,0.5],[1,0.5]];portConstraint=eastwest;whiteSpace=wrap;html=1;" parent="vJEHkjAeBdwb-GLlzBkE-11" vertex="1">
          <mxGeometry y="26" width="140" height="26" as="geometry" />
        </mxCell>
        <mxCell id="vJEHkjAeBdwb-GLlzBkE-13" value="+ value : TEXT" style="text;strokeColor=none;fillColor=none;align=left;verticalAlign=top;spacingLeft=4;spacingRight=4;overflow=hidden;rotatable=0;points=[[0,0.5],[1,0.5]];portConstraint=eastwest;whiteSpace=wrap;html=1;" parent="vJEHkjAeBdwb-GLlzBkE-11" vertex="1">
          <mxGeometry y="52" width="140" height="26" as="geometry" />
        </mxCell>
        <mxCell id="vJEHkjAeBdwb-GLlzBkE-15" value="" style="endArrow=open;html=1;endSize=12;startArrow=diamondThin;startSize=14;startFill=0;edgeStyle=orthogonalEdgeStyle;rounded=0;entryX=0;entryY=0.5;entryDx=0;entryDy=0;" parent="1" target="vJEHkjAeBdwb-GLlzBkE-8" edge="1">
          <mxGeometry relative="1" as="geometry">
            <mxPoint x="200" y="204.5" as="sourcePoint" />
            <mxPoint x="360" y="204.5" as="targetPoint" />
          </mxGeometry>
        </mxCell>
        <mxCell id="vJEHkjAeBdwb-GLlzBkE-16" value="0..n" style="edgeLabel;resizable=0;html=1;align=left;verticalAlign=top;" parent="vJEHkjAeBdwb-GLlzBkE-15" connectable="0" vertex="1">
          <mxGeometry x="-1" relative="1" as="geometry" />
        </mxCell>
        <mxCell id="vJEHkjAeBdwb-GLlzBkE-17" value="1" style="edgeLabel;resizable=0;html=1;align=right;verticalAlign=top;" parent="vJEHkjAeBdwb-GLlzBkE-15" connectable="0" vertex="1">
          <mxGeometry x="1" relative="1" as="geometry" />
        </mxCell>
        <mxCell id="vJEHkjAeBdwb-GLlzBkE-21" value="" style="endArrow=open;html=1;endSize=12;startArrow=diamondThin;startSize=14;startFill=0;edgeStyle=orthogonalEdgeStyle;rounded=0;entryX=0.5;entryY=0;entryDx=0;entryDy=0;exitX=0.203;exitY=-0.014;exitDx=0;exitDy=0;exitPerimeter=0;" parent="1" source="vJEHkjAeBdwb-GLlzBkE-6" target="vJEHkjAeBdwb-GLlzBkE-11" edge="1">
          <mxGeometry relative="1" as="geometry">
            <mxPoint x="250" y="290" as="sourcePoint" />
            <mxPoint x="410" y="290" as="targetPoint" />
          </mxGeometry>
        </mxCell>
        <mxCell id="vJEHkjAeBdwb-GLlzBkE-22" value="0..n" style="edgeLabel;resizable=0;html=1;align=left;verticalAlign=top;" parent="vJEHkjAeBdwb-GLlzBkE-21" connectable="0" vertex="1">
          <mxGeometry x="-1" relative="1" as="geometry" />
        </mxCell>
        <mxCell id="vJEHkjAeBdwb-GLlzBkE-23" value="1" style="edgeLabel;resizable=0;html=1;align=right;verticalAlign=top;" parent="vJEHkjAeBdwb-GLlzBkE-21" connectable="0" vertex="1">
          <mxGeometry x="1" relative="1" as="geometry">
            <mxPoint x="-10" y="-30" as="offset" />
          </mxGeometry>
        </mxCell>
        <mxCell id="vJEHkjAeBdwb-GLlzBkE-24" value="" style="endArrow=open;html=1;endSize=12;startArrow=diamondThin;startSize=14;startFill=0;edgeStyle=orthogonalEdgeStyle;rounded=0;exitX=0.995;exitY=0.078;exitDx=0;exitDy=0;exitPerimeter=0;entryX=0.25;entryY=0;entryDx=0;entryDy=0;" parent="1" source="vJEHkjAeBdwb-GLlzBkE-1" target="vJEHkjAeBdwb-GLlzBkE-11" edge="1">
          <mxGeometry x="0.4676" y="-115" relative="1" as="geometry">
            <mxPoint x="110.00000000000009" y="120.00000000000006" as="sourcePoint" />
            <mxPoint x="268.4" y="348.80400000000003" as="targetPoint" />
            <mxPoint as="offset" />
          </mxGeometry>
        </mxCell>
        <mxCell id="vJEHkjAeBdwb-GLlzBkE-25" value="0..n" style="edgeLabel;resizable=0;html=1;align=left;verticalAlign=top;" parent="vJEHkjAeBdwb-GLlzBkE-24" connectable="0" vertex="1">
          <mxGeometry x="-1" relative="1" as="geometry" />
        </mxCell>
        <mxCell id="vJEHkjAeBdwb-GLlzBkE-26" value="1" style="edgeLabel;resizable=0;html=1;align=right;verticalAlign=top;" parent="vJEHkjAeBdwb-GLlzBkE-24" connectable="0" vertex="1">
          <mxGeometry x="1" relative="1" as="geometry">
            <mxPoint x="-28" y="-19" as="offset" />
          </mxGeometry>
        </mxCell>
      </root>
    </mxGraphModel>
  </diagram>
</mxfile>
